/vscmnt/brussel_pixiu_data/_data_brussel/112/vsc11236/PredSimResults/SUBJ09mtu3D/worker8.mot
version=1
nRows=6
nColumns=50
inDegrees=yes
endheader
                time	         pelvis_tilt	         pelvis_list	     pelvis_rotation	           pelvis_tx	           pelvis_ty	           pelvis_tz	       hip_flexion_r	     hip_adduction_r	      hip_rotation_r	        knee_angle_r	       ankle_angle_r	         mtp_angle_r	       hip_flexion_l	     hip_adduction_l	      hip_rotation_l	        knee_angle_l	       ankle_angle_l	         mtp_angle_l	    lumbar_extension	      lumbar_bending	     lumbar_rotation	 ercspn_r/activation	 intobl_r/activation	 extobl_r/activation	    abd_r/activation	    add_r/activation	hamstrings_r/activation	bifemsh_r/activation	glut_max_r/activation	iliopsoas_r/activation	rect_fem_r/activation	  vasti_r/activation	gastroc_r/activation	 soleus_r/activation	tib_ant_r/activation	 ercspn_l/activation	 intobl_l/activation	 extobl_l/activation	    abd_l/activation	    add_l/activation	hamstrings_l/activation	bifemsh_l/activation	glut_max_l/activation	iliopsoas_l/activation	rect_fem_l/activation	  vasti_l/activation	gastroc_l/activation	 soleus_l/activation	tib_ant_l/activation	
          0.63221218	         -3.35181296	          3.08451327	         -7.02965928	          0.78394310	          0.98753037	          0.00491201	        -14.24897970	         -4.07442720	          0.80052192	        -12.26992005	          6.97686718	         35.16514442	         26.94073459	          1.14300291	         -3.73689563	         -3.37746341	          7.18037111	          0.24538681	        -13.58166519	         -1.30518059	         -3.96318640	          0.01000006	          0.01000000	          0.00999999	          0.02231908	          0.03888325	          0.01079206	          0.15904625	          0.01239819	          0.22964591	          0.01000006	          0.01000001	          0.32311392	          0.25276021	          0.01052367	          0.04395935	          0.25364856	          0.03561275	          0.00999999	          0.13917744	          0.06318407	          0.19681421	          0.09558051	          0.11329046	          0.01000001	          0.01000000	          0.05590484	          0.01465881	          0.23117751	
          0.64485642	         -3.30966451	          3.13332406	         -7.01049952	          0.80427669	          0.98518326	          0.00419206	        -14.99707206	         -4.27110803	          0.35755367	        -13.06477349	          5.79294120	         36.87339163	         26.99732623	          1.36597158	         -3.58777377	         -5.58397647	          6.78960063	          0.19866680	        -13.14372246	         -1.66866303	         -3.73741614	          0.01338954	          0.01000000	          0.01210738	          0.01843429	          0.03949483	          0.01774818	          0.13136313	          0.01024021	          0.22708543	          0.01000001	          0.01000001	          0.29576449	          0.22542075	          0.00999999	          0.03630792	          0.20949926	          0.02941410	          0.07629029	          0.11495263	          0.06028289	          0.16255731	          0.14474569	          0.09357145	          0.00999999	          0.01000000	          0.04617421	          0.01210737	          0.27032918	
          0.65750067	         -3.25687064	          3.17425147	         -6.95130950	          0.82465507	          0.98331502	          0.00343150	        -15.45656464	         -4.44888457	         -0.11202357	        -14.37411485	          4.45281091	         38.51270620	         26.90851176	          1.58926785	         -3.45217583	         -7.55102137	          6.28655463	          0.18598668	        -12.71729151	         -2.03314593	         -3.50348030	          0.04757112	          0.01000000	          0.01000001	          0.01522567	          0.04070508	          0.01465900	          0.10849845	          0.01000001	          0.26774268	          0.01000002	          0.01264972	          0.26042242	          0.18618473	          0.00999999	          0.02998832	          0.17303444	          0.02429437	          0.16840320	          0.12893190	          0.05323020	          0.13426307	          0.17318103	          0.07728468	          0.00999999	          0.00999999	          0.03813726	          0.00999999	          0.30283122	
          0.67014491	         -3.19643564	          3.19691967	         -6.85417375	          0.84469319	          0.98218552	          0.00263453	        -15.51414354	         -4.59969950	         -0.58529300	        -16.34674422	          2.99289673	         39.85613688	         26.82848481	          1.80399351	         -3.33275016	         -9.52429437	          5.83326307	          0.14690972	        -12.34514118	         -2.38795999	         -3.26502895	          0.07153667	          0.00999999	          0.01000000	          0.01257554	          0.06835296	          0.01210751	          0.08961354	          0.01000000	          0.31195176	          0.01000001	          0.01044795	          0.21509406	          0.15377796	          0.00999999	          0.04580364	          0.14291658	          0.02006576	          0.22810653	          0.16661260	          0.04396512	          0.11089363	          0.19851788	          0.06383274	          0.01000000	          0.02719324	          0.03149920	          0.01000002	          0.31392618	
          0.68278915	         -3.12754331	          3.19868116	         -6.71777245	          0.86421083	          0.98186753	          0.00182770	        -15.08734545	         -4.72523243	         -1.06024655	        -19.11986202	          1.54246117	         40.49799886	         26.79344756	          1.99882540	         -3.25366489	        -11.60310346	          5.68608035	          0.11773686	        -12.04459426	         -2.73304688	         -3.03059703	          0.10540688	          0.01000000	          0.01000000	          0.01038667	          0.09433463	          0.01000012	          0.07401568	          0.00999999	          0.29759485	          0.01000001	          0.00999999	          0.17765542	          0.12701182	          0.00999999	          0.04047833	          0.11804094	          0.01657317	          0.25248983	          0.18228224	          0.03631270	          0.09159182	          0.20210733	          0.05272220	          0.01000000	          0.11733648	          0.02601654	          0.01216637	          0.30793745	
          0.69543340	         -3.05134281	          3.17139856	         -6.53777883	          0.88318854	          0.98236634	          0.00104193	        -14.16523900	         -4.82602916	         -1.53599886	        -22.70325748	          0.14927964	         40.08745917	         26.68667159	          2.16616072	         -3.20902273	        -13.54409587	          5.69926597	          0.09502008	        -11.81264052	         -3.05974297	         -2.80704595	          0.11433079	          0.00999999	          0.01000001	          0.00999999	          0.11464697	          0.01000000	          0.06113278	          0.00999999	          0.24579637	          0.01000000	          0.00999999	          0.14673324	          0.10490452	          0.00999999	          0.03343280	          0.09749508	          0.01368850	          0.24824239	          0.17531505	          0.03071752	          0.07564962	          0.19974174	          0.04354553	          0.01000000	          0.20281267	          0.02148818	          0.01210744	          0.29705814	
